<?xml version="1.0" encoding="UTF-8"?>
<svg width="1000" height="1000" xmlns="http://www.w3.org/2000/svg">
  <defs>
    <style>
      .element { stroke: #000000; stroke-width: 1; }
      .spiral { stroke: #0066CC; stroke-width: 0.5; fill: none; opacity: 0.3; }
    </style>
  </defs>
  
  <!-- Background -->
  <rect width="1000" height="1000" fill="#FFFFFF"/>
  
  <!-- Spiral path (phyllotactic pattern) -->
  <path class="spiral" d="M 500,500 L 500,500"/>
  
  <!-- Antenna elements (121 elements in phyllotactic spiral) -->
  <!-- Central element -->
  <circle class="element" cx="500" cy="500" r="4" fill="#CC0066"/>
  
  <!-- Spiral elements - simplified representation -->
  <circle class="element" cx="520" cy="500" r="3" fill="#CC0066"/>
  <circle class="element" cx="510" cy="515" r="3" fill="#CC0066"/>
  <circle class="element" cx="495" cy="525" r="3" fill="#CC0066"/>
  <circle class="element" cx="480" cy="520" r="3" fill="#CC0066"/>
  <circle class="element" cx="470" cy="505" r="3" fill="#CC0066"/>
  <circle class="element" cx="475" cy="490" r="3" fill="#CC0066"/>
  <circle class="element" cx="490" cy="480" r="3" fill="#CC0066"/>
  <circle class="element" cx="505" cy="475" r="3" fill="#CC0066"/>
  <circle class="element" cx="520" cy="485" r="3" fill="#CC0066"/>
  <circle class="element" cx="530" cy="500" r="3" fill="#CC0066"/>
  
  <!-- Outer ring elements (simplified) -->
  <circle class="element" cx="540" cy="485" r="2.5" fill="#990066"/>
  <circle class="element" cx="545" cy="470" r="2.5" fill="#990066"/>
  <circle class="element" cx="540" cy="455" r="2.5" fill="#990066"/>
  <circle class="element" cx="530" cy="445" r="2.5" fill="#990066"/>
  <circle class="element" cx="515" cy="440" r="2.5" fill="#990066"/>
  <circle class="element" cx="500" cy="440" r="2.5" fill="#990066"/>
  <circle class="element" cx="485" cy="445" r="2.5" fill="#990066"/>
  <circle class="element" cx="470" cy="455" r="2.5" fill="#990066"/>
  <circle class="element" cx="460" cy="470" r="2.5" fill="#990066"/>
  <circle class="element" cx="455" cy="485" r="2.5" fill="#990066"/>
  <circle class="element" cx="455" cy="500" r="2.5" fill="#990066"/>
  <circle class="element" cx="460" cy="515" r="2.5" fill="#990066"/>
  <circle class="element" cx="470" cy="530" r="2.5" fill="#990066"/>
  <circle class="element" cx="485" cy="540" r="2.5" fill="#990066"/>
  <circle class="element" cx="500" cy="545" r="2.5" fill="#990066"/>
  <circle class="element" cx="515" cy="545" r="2.5" fill="#990066"/>
  <circle class="element" cx="530" cy="540" r="2.5" fill="#990066"/>
  <circle class="element" cx="540" cy="530" r="2.5" fill="#990066"/>
  <circle class="element" cx="545" cy="515" r="2.5" fill="#990066"/>
  
  <!-- Additional outer elements -->
  <circle class="element" cx="550" cy="500" r="2" fill="#660066"/>
  <circle class="element" cx="545" cy="485" r="2" fill="#660066"/>
  <circle class="element" cx="535" cy="470" r="2" fill="#660066"/>
  <circle class="element" cx="520" cy="460" r="2" fill="#660066"/>
  <circle class="element" cx="500" cy="455" r="2" fill="#660066"/>
  <circle class="element" cx="480" cy="460" r="2" fill="#660066"/>
  <circle class="element" cx="465" cy="470" r="2" fill="#660066"/>
  <circle class="element" cx="450" cy="485" r="2" fill="#660066"/>
  <circle class="element" cx="450" cy="500" r="2" fill="#660066"/>
  <circle class="element" cx="450" cy="515" r="2" fill="#660066"/>
  <circle class="element" cx="465" cy="530" r="2" fill="#660066"/>
  <circle class="element" cx="480" cy="540" r="2" fill="#660066"/>
  <circle class="element" cx="500" cy="550" r="2" fill="#660066"/>
  <circle class="element" cx="520" cy="550" r="2" fill="#660066"/>
  <circle class="element" cx="535" cy="540" r="2" fill="#660066"/>
  <circle class="element" cx="545" cy="530" r="2" fill="#660066"/>
  <circle class="element" cx="550" cy="515" r="2" fill="#660066"/>
  
  <!-- Title -->
  <text x="500" y="30" text-anchor="middle" font-family="Arial, sans-serif" font-size="24" font-weight="bold" fill="#000000">
    GAFAA Phyllotactic Antenna Array (121 elements)
  </text>
  <text x="500" y="60" text-anchor="middle" font-family="Arial, sans-serif" font-size="14" fill="#666666">
    Golden Angle ~137.508° Spiral Pattern
  </text>
</svg>
