<?xml version="1.0" encoding="UTF-8"?>
<svg width="1000" height="1000" xmlns="http://www.w3.org/2000/svg">
  <defs>
    <style>
      .electrode { stroke: #000000; stroke-width: 1; }
      .spiral { stroke: #0066CC; stroke-width: 0.5; fill: none; opacity: 0.3; }
      .coverage { stroke: #FF0000; stroke-width: 2; fill: none; stroke-dasharray: 5,5; opacity: 0.7; }
    </style>
  </defs>
  
  <!-- Background -->
  <rect width="1000" height="1000" fill="#FFFFFF"/>
  
  <!-- Coverage circle -->
  <circle class="coverage" cx="500" cy="500" r="400"/>
  
  <!-- Spiral path -->
  <path class="spiral" d="M 500,500 L 500,500"/>
  
  <!-- Central electrode -->
  <circle class="electrode" cx="500" cy="500" r="8" fill="#0066CC"/>
  
  <!-- Inner ring electrodes -->
  <circle class="electrode" cx="520" cy="500" r="6" fill="#0066CC"/>
  <circle class="electrode" cx="510" cy="515" r="6" fill="#0066CC"/>
  <circle class="electrode" cx="495" cy="525" r="6" fill="#0066CC"/>
  <circle class="electrode" cx="480" cy="520" r="6" fill="#0066CC"/>
  <circle class="electrode" cx="470" cy="505" r="6" fill="#0066CC"/>
  <circle class="electrode" cx="475" cy="490" r="6" fill="#0066CC"/>
  <circle class="electrode" cx="490" cy="480" r="6" fill="#0066CC"/>
  <circle class="electrode" cx="505" cy="475" r="6" fill="#0066CC"/>
  <circle class="electrode" cx="520" cy="485" r="6" fill="#0066CC"/>
  <circle class="electrode" cx="530" cy="500" r="6" fill="#0066CC"/>
  
  <!-- Middle ring electrodes -->
  <circle class="electrode" cx="540" cy="485" r="5" fill="#0066CC"/>
  <circle class="electrode" cx="545" cy="470" r="5" fill="#0066CC"/>
  <circle class="electrode" cx="540" cy="455" r="5" fill="#0066CC"/>
  <circle class="electrode" cx="530" cy="445" r="5" fill="#0066CC"/>
  <circle class="electrode" cx="515" cy="440" r="5" fill="#0066CC"/>
  <circle class="electrode" cx="500" cy="440" r="5" fill="#0066CC"/>
  <circle class="electrode" cx="485" cy="445" r="5" fill="#0066CC"/>
  <circle class="electrode" cx="470" cy="455" r="5" fill="#0066CC"/>
  <circle class="electrode" cx="460" cy="470" r="5" fill="#0066CC"/>
  <circle class="electrode" cx="455" cy="485" r="5" fill="#0066CC"/>
  <circle class="electrode" cx="455" cy="500" r="5" fill="#0066CC"/>
  <circle class="electrode" cx="460" cy="515" r="5" fill="#0066CC"/>
  <circle class="electrode" cx="470" cy="530" r="5" fill="#0066CC"/>
  <circle class="electrode" cx="485" cy="540" r="5" fill="#0066CC"/>
  <circle class="electrode" cx="500" cy="545" r="5" fill="#0066CC"/>
  <circle class="electrode" cx="515" cy="545" r="5" fill="#0066CC"/>
  <circle class="electrode" cx="530" cy="540" r="5" fill="#0066CC"/>
  <circle class="electrode" cx="540" cy="530" r="5" fill="#0066CC"/>
  <circle class="electrode" cx="545" cy="515" r="5" fill="#0066CC"/>
  
  <!-- Outer ring electrodes -->
  <circle class="electrode" cx="550" cy="500" r="4" fill="#0066CC"/>
  <circle class="electrode" cx="545" cy="485" r="4" fill="#0066CC"/>
  <circle class="electrode" cx="535" cy="470" r="4" fill="#0066CC"/>
  <circle class="electrode" cx="520" cy="460" r="4" fill="#0066CC"/>
  <circle class="electrode" cx="500" cy="455" r="4" fill="#0066CC"/>
  <circle class="electrode" cx="480" cy="460" r="4" fill="#0066CC"/>
  <circle class="electrode" cx="465" cy="470" r="4" fill="#0066CC"/>
  <circle class="electrode" cx="450" cy="485" r="4" fill="#0066CC"/>
  <circle class="electrode" cx="450" cy="500" r="4" fill="#0066CC"/>
  <circle class="electrode" cx="450" cy="515" r="4" fill="#0066CC"/>
  <circle class="electrode" cx="465" cy="530" r="4" fill="#0066CC"/>
  <circle class="electrode" cx="480" cy="540" r="4" fill="#0066CC"/>
  <circle class="electrode" cx="500" cy="550" r="4" fill="#0066CC"/>
  <circle class="electrode" cx="520" cy="550" r="4" fill="#0066CC"/>
  <circle class="electrode" cx="535" cy="540" r="4" fill="#0066CC"/>
  <circle class="electrode" cx="545" cy="530" r="4" fill="#0066CC"/>
  <circle class="electrode" cx="550" cy="515" r="4" fill="#0066CC"/>
  
  <!-- Additional outer electrodes (simplified representation) -->
  <circle class="electrode" cx="200" cy="500" r="3" fill="#0066CC"/>
  <circle class="electrode" cx="800" cy="500" r="3" fill="#0066CC"/>
  <circle class="electrode" cx="500" cy="200" r="3" fill="#0066CC"/>
  <circle class="electrode" cx="500" cy="800" r="3" fill="#0066CC"/>
  <circle class="electrode" cx="300" cy="300" r="3" fill="#0066CC"/>
  <circle class="electrode" cx="700" cy="700" r="3" fill="#0066CC"/>
  <circle class="electrode" cx="300" cy="700" r="3" fill="#0066CC"/>
  <circle class="electrode" cx="700" cy="300" r="3" fill="#0066CC"/>
  
  <!-- Title -->
  <text x="500" y="30" text-anchor="middle" font-family="Arial, sans-serif" font-size="24" font-weight="bold" fill="#000000">
    PNM Phyllotactic Electrode Array (121 electrodes)
  </text>
  <text x="500" y="60" text-anchor="middle" font-family="Arial, sans-serif" font-size="14" fill="#666666">
    Golden Angle ~137.508° Pattern for Neural Interfaces
  </text>
</svg>
