<?xml version="1.0" encoding="UTF-8"?>
<svg width="1000" height="1000" xmlns="http://www.w3.org/2000/svg">
  <defs>
    <style>
      .node { stroke: #000000; stroke-width: 1; }
      .spiral { stroke: #0066CC; stroke-width: 0.5; fill: none; opacity: 0.3; }
      .connection { stroke: #999999; stroke-width: 0.5; opacity: 0.2; }
    </style>
  </defs>
  
  <!-- Background -->
  <rect width="1000" height="1000" fill="#FFFFFF"/>
  
  <!-- Spiral path -->
  <path class="spiral" d="M 500,500 L 500,500"/>
  
  <!-- Central node -->
  <circle class="node" cx="500" cy="500" r="5" fill="#0066FF"/>
  
  <!-- Inner ring nodes -->
  <circle class="node" cx="520" cy="500" r="4" fill="#0066FF"/>
  <circle class="node" cx="510" cy="515" r="4" fill="#0066FF"/>
  <circle class="node" cx="495" cy="525" r="4" fill="#0066FF"/>
  <circle class="node" cx="480" cy="520" r="4" fill="#0066FF"/>
  <circle class="node" cx="470" cy="505" r="4" fill="#0066FF"/>
  <circle class="node" cx="475" cy="490" r="4" fill="#0066FF"/>
  <circle class="node" cx="490" cy="480" r="4" fill="#0066FF"/>
  <circle class="node" cx="505" cy="475" r="4" fill="#0066FF"/>
  <circle class="node" cx="520" cy="485" r="4" fill="#0066FF"/>
  <circle class="node" cx="530" cy="500" r="4" fill="#0066FF"/>
  
  <!-- Middle ring nodes -->
  <circle class="node" cx="540" cy="485" r="3.5" fill="#0066FF"/>
  <circle class="node" cx="545" cy="470" r="3.5" fill="#0066FF"/>
  <circle class="node" cx="540" cy="455" r="3.5" fill="#0066FF"/>
  <circle class="node" cx="530" cy="445" r="3.5" fill="#0066FF"/>
  <circle class="node" cx="515" cy="440" r="3.5" fill="#0066FF"/>
  <circle class="node" cx="500" cy="440" r="3.5" fill="#0066FF"/>
  <circle class="node" cx="485" cy="445" r="3.5" fill="#0066FF"/>
  <circle class="node" cx="470" cy="455" r="3.5" fill="#0066FF"/>
  <circle class="node" cx="460" cy="470" r="3.5" fill="#0066FF"/>
  <circle class="node" cx="455" cy="485" r="3.5" fill="#0066FF"/>
  <circle class="node" cx="455" cy="500" r="3.5" fill="#0066FF"/>
  <circle class="node" cx="460" cy="515" r="3.5" fill="#0066FF"/>
  <circle class="node" cx="470" cy="530" r="3.5" fill="#0066FF"/>
  <circle class="node" cx="485" cy="540" r="3.5" fill="#0066FF"/>
  <circle class="node" cx="500" cy="545" r="3.5" fill="#0066FF"/>
  <circle class="node" cx="515" cy="545" r="3.5" fill="#0066FF"/>
  <circle class="node" cx="530" cy="540" r="3.5" fill="#0066FF"/>
  <circle class="node" cx="540" cy="530" r="3.5" fill="#0066FF"/>
  <circle class="node" cx="545" cy="515" r="3.5" fill="#0066FF"/>
  
  <!-- Outer ring nodes -->
  <circle class="node" cx="550" cy="500" r="3" fill="#0066FF"/>
  <circle class="node" cx="545" cy="485" r="3" fill="#0066FF"/>
  <circle class="node" cx="535" cy="470" r="3" fill="#0066FF"/>
  <circle class="node" cx="520" cy="460" r="3" fill="#0066FF"/>
  <circle class="node" cx="500" cy="455" r="3" fill="#0066FF"/>
  <circle class="node" cx="480" cy="460" r="3" fill="#0066FF"/>
  <circle class="node" cx="465" cy="470" r="3" fill="#0066FF"/>
  <circle class="node" cx="450" cy="485" r="3" fill="#0066FF"/>
  <circle class="node" cx="450" cy="500" r="3" fill="#0066FF"/>
  <circle class="node" cx="450" cy="515" r="3" fill="#0066FF"/>
  <circle class="node" cx="465" cy="530" r="3" fill="#0066FF"/>
  <circle class="node" cx="480" cy="540" r="3" fill="#0066FF"/>
  <circle class="node" cx="500" cy="550" r="3" fill="#0066FF"/>
  <circle class="node" cx="520" cy="550" r="3" fill="#0066FF"/>
  <circle class="node" cx="535" cy="540" r="3" fill="#0066FF"/>
  <circle class="node" cx="545" cy="530" r="3" fill="#0066FF"/>
  <circle class="node" cx="550" cy="515" r="3" fill="#0066FF"/>
  
  <!-- Additional outer nodes -->
  <circle class="node" cx="200" cy="500" r="2.5" fill="#0066FF"/>
  <circle class="node" cx="800" cy="500" r="2.5" fill="#0066FF"/>
  <circle class="node" cx="500" cy="200" r="2.5" fill="#0066FF"/>
  <circle class="node" cx="500" cy="800" r="2.5" fill="#0066FF"/>
  <circle class="node" cx="300" cy="300" r="2.5" fill="#0066FF"/>
  <circle class="node" cx="700" cy="700" r="2.5" fill="#0066FF"/>
  <circle class="node" cx="300" cy="700" r="2.5" fill="#0066FF"/>
  <circle class="node" cx="700" cy="300" r="2.5" fill="#0066FF"/>
  
  <!-- Title -->
  <text x="500" y="30" text-anchor="middle" font-family="Arial, sans-serif" font-size="24" font-weight="bold" fill="#000000">
    Phyllux Vault Geometric Lattice (121 nodes)
  </text>
  <text x="500" y="60" text-anchor="middle" font-family="Arial, sans-serif" font-size="14" fill="#666666">
    Golden Angle ~137.508° Pattern for Cryptographic Security
  </text>
</svg>
